<svg xmlns="http://www.w3.org/2000/svg" width="48" height="48" fill="none"><rect width="48" height="48" fill="#1C1D20" rx="10"/><path fill="#FAFAFA" d="m36.7194 23.0526.1243-2.6223-2.2912 1.4265-.7105-1.1787 2.4334-1.1959-2.4334-1.1958.7105-1.1958 2.2912 1.4264-.1243-2.6223h1.4032l-.1244 2.6223 2.2913-1.4264.7104 1.1958-2.4333 1.1958 2.4333 1.1959-.7104 1.1787-2.2913-1.4265.1244 2.6223h-1.4032ZM31.5506 18.8026v1.5056h-5.761v-1.5056h5.761Zm-4.1907 9.6185V17.6842c0-.5965.14-1.0926.42-1.4883.2861-.4015.6573-.6998 1.1138-.8948.4626-.2007.9587-.3011 1.4882-.3011.4078 0 .7548.0315 1.0408.0946.2861.0631.4961.1176.63.1635l-.4747 1.5142c-.0913-.0287-.21-.0603-.3561-.0947-.14-.0344-.3165-.0516-.5296-.0516-.4808 0-.8277.1147-1.0408.3441-.213.2237-.3195.5506-.3195.9808v10.4702h-1.9721Z"/><path fill="#FAFAFA" d="M26.1822 18.8026v1.5056h-5.7611v-1.5056h5.7611Zm-4.1907 9.6185V17.6842c0-.5965.14-1.0926.42-1.4883.286-.4015.6573-.6998 1.1138-.8948.4626-.2007.9587-.3011 1.4882-.3011.4078 0 .7548.0315 1.0408.0946.2861.0631.4961.1176.63.1635l-.4748 1.5142c-.0913-.0287-.2099-.0603-.356-.0947-.14-.0344-.3165-.0516-.5296-.0516-.4808 0-.8277.1147-1.0408.3441-.213.2237-.3195.5506-.3195.9808v10.4702h-1.9721ZM16.186 28.4211c-.9666 0-1.8036-.2017-2.5109-.6051-.7073-.4033-1.2525-.9714-1.6356-1.7042-.3773-.7385-.5659-1.5992-.5659-2.582 0-.9771.1857-1.8377.557-2.5819.3773-.7442.9048-1.3237 1.5826-1.7384.6837-.4204 1.4854-.6306 2.4048-.6306.56 0 1.1023.0881 1.6268.2642.5246.1761.9962.4545 1.4146.8351.4185.3806.7486.8748.9903 1.4827.2475.6079.3713 1.3407.3713 2.1985v.6647h-7.8599v-1.389h6.8697l-.893.4601c0-.5851-.0943-1.1021-.2829-1.5508-.1886-.4488-.4715-.7982-.8488-1.0482-.3713-.2556-.834-.3834-1.3881-.3834-.554 0-1.0285.1278-1.4234.3834-.389.2557-.6867.5937-.893 1.0141-.2063.4204-.3094.8805-.3094 1.3804v.9459c0 .6533.1179 1.2072.3536 1.6616.2358.4545.5629.801.9814 1.0396.4244.2386.9166.3579 1.4765.3579.3655 0 .6955-.0511.9902-.1533.3006-.1023.56-.2557.7781-.4602.2181-.2045.3831-.4573.4951-.7584l1.8213.3323c-.1474.5113-.4067.9601-.778 1.3464-.3714.3863-.84.6874-1.4058.9033-.56.2102-1.1995.3153-1.9186.3153ZM8.529 18.725h1.8147v10.2933c.0056.6453-.1064 1.1898-.336 1.6335-.2297.4436-.5657.7778-1.0082 1.0025-.4425.2305-.9857.3457-1.6298.3457H7v-1.6162h.294c.437 0 .7506-.1181.941-.3543.1904-.2362.2884-.5762.294-1.0198V18.725Zm.899-1.4866c-.3193 0-.591-.1094-.815-.3284-.224-.2189-.336-.4811-.336-.7865 0-.3111.112-.5761.336-.7951.224-.2189.4957-.3284.815-.3284.3136 0 .5825.1095.8065.3284.2296.219.3444.484.3444.7951 0 .3054-.1148.5676-.3444.7865-.224.219-.4929.3284-.8065.3284Z"/></svg>