<svg xmlns="http://www.w3.org/2000/svg" aria-hidden="true" style="position:absolute;width:0;height:0;overflow:hidden">
    <defs>
        <symbol id="icon-arrow-down" viewBox="0 0 32 32">
            <path fill="none" stroke="#fafafa" stroke-width="3.2" d="m24 12-8 8-8-8"
                style="stroke: #fafafa" />
        </symbol>
        <symbol id="icon-arrows-left" viewBox="0 0 32 32">
            <path stroke-linecap="round" stroke-linejoin="round" stroke-width="2"
                d="M26.667 16H5.334M13.333 24l-8-8 8-8" />
        </symbol>
        <symbol id="icon-arrows-right" viewBox="0 0 32 32">
            <path stroke-linecap="round" stroke-linejoin="round" stroke-width="2"
                d="M5.333 16h21.333M18.667 8l8 8-8 8" />
        </symbol>
        <symbol id="icon-arrow-up" viewBox="0 0 32 32">
            <path fill="none" stroke="#fafafa" stroke-width="3.2" d="m24 20-8-8-8 8"
                style="stroke: #fafafa" />
        </symbol>
        <symbol id="icon-favicon-one" viewBox="0 0 32 32">
            <path fill="#1c1d20"
                d="M6.667 0h18.667c3.682 0 6.667 2.985 6.667 6.667v18.667c0 3.682-2.985 6.667-6.667 6.667H6.667C2.985 32.001 0 29.016 0 25.334V6.667C0 2.985 2.985 0 6.667 0z"
                style="fill:#1c1d20" />
            <path fill="#fafafa"
                d="m24.48 15.368.083-1.748-1.527.951-.474-.786 1.622-.797-1.622-.797.474-.797 1.527.951-.083-1.748h.935l-.083 1.748 1.528-.951.474.797-1.622.797 1.622.797-.474.786-1.528-.951.083 1.748h-.935zM21.034 12.535v1.004h-3.841v-1.004h3.841zm-2.794 6.412v-7.158c0-.398.093-.728.28-.992.191-.268.438-.467.743-.597.308-.134.639-.201.992-.201.272 0 .503.021.694.063s.331.078.42.109l-.316 1.009c-.061-.019-.14-.04-.237-.063-.093-.023-.211-.034-.353-.034-.321 0-.552.076-.694.229-.142.149-.213.367-.213.654v6.98h-1.315z"
                style="fill:#fafafa" />
            <path fill="#fafafa"
                d="M17.455 12.535v1.004h-3.841v-1.004h3.841zm-2.794 6.412v-7.158c0-.398.093-.728.28-.992.191-.268.438-.467.743-.597.308-.134.639-.201.992-.201.272 0 .503.021.694.063s.331.078.42.109l-.317 1.009c-.061-.019-.14-.04-.237-.063-.093-.023-.211-.034-.353-.034-.321 0-.552.076-.694.229-.142.149-.213.367-.213.654v6.98h-1.315zM10.791 18.947c-.644 0-1.202-.134-1.674-.403s-.835-.648-1.09-1.136c-.252-.492-.377-1.066-.377-1.721 0-.651.124-1.225.371-1.721.252-.496.603-.882 1.055-1.159.456-.28.99-.42 1.603-.42.373 0 .735.059 1.085.176s.664.303.943.557c.279.254.499.583.66.988.165.405.248.894.248 1.466v.443h-5.24v-.926h4.58l-.595.307c0-.39-.063-.735-.189-1.034s-.314-.532-.566-.699c-.248-.17-.556-.256-.925-.256s-.686.085-.949.256c-.259.17-.458.396-.595.676s-.206.587-.206.92v.631c0 .436.079.805.236 1.108s.375.534.654.693c.283.159.611.239.984.239.244 0 .464-.034.66-.102.2-.068.373-.17.519-.307s.255-.305.33-.506l1.214.222c-.098.341-.271.64-.519.898s-.56.458-.937.602c-.373.14-.8.21-1.279.21zM5.686 12.483h1.21v6.862c.004.43-.071.793-.224 1.089s-.377.519-.672.668c-.295.154-.657.23-1.087.23h-.246v-1.077h.196c.291 0 .5-.079.627-.236s.192-.384.196-.68v-6.856zm.599-.991c-.213 0-.394-.073-.543-.219s-.224-.321-.224-.524c0-.207.075-.384.224-.53s.33-.219.543-.219c.209 0 .388.073.538.219.153.146.23.323.23.53 0 .204-.077.378-.23.524-.149.146-.329.219-.538.219z"
                style="fill: #fafafa" />
        </symbol>
        <symbol id="icon-favicon-two" viewBox="0 0 32 32">
            <path fill="#1c1d20"
                d="M6.667 0h18.667c3.682 0 6.667 2.985 6.667 6.667v18.667c0 3.682-2.985 6.667-6.667 6.667H6.667C2.985 32.001 0 29.016 0 25.334V6.667C0 2.985 2.985 0 6.667 0z"
                style="fill:#1c1d20" />
            <path fill="#fafafa"
                d="M12.432 20.797c-.551 0-1.046-.098-1.484-.293-.438-.2-.786-.49-1.042-.872s-.384-.846-.384-1.393v-.189h1.452v.189c0 .265.061.497.182.697.126.2.297.354.514.462.221.104.475.156.762.156.308 0 .571-.065.788-.195s.382-.321.495-.573c.113-.256.169-.569.169-.937v-6.882h1.452v6.882c0 .621-.119 1.152-.358 1.595-.234.438-.569.775-1.003 1.009-.434.23-.948.345-1.543.345zm6.101-4.375.091-1.999-1.68 1.087-.521-.898 1.784-.911-1.784-.911.521-.911 1.68 1.087-.091-1.999h1.029l-.091 1.999 1.68-1.087.521.911-1.784.911 1.784.911-.521.898-1.68-1.087.091 1.999h-1.029z"
                style="fill:#fafafa" />
        </symbol>
        <symbol id="icon-logo_jeff" viewBox="0 0 141 32">
            <path fill="#fafafa"
                d="m133.416 15.158.234-4.936-4.313 2.685L128 10.688l4.58-2.251L128 6.186l1.337-2.251 4.313 2.685-.234-4.936h2.641l-.234 4.936 4.313-2.685 1.337 2.251-4.58 2.251 4.58 2.251-1.337 2.219-4.313-2.685.234 4.936h-2.641zM112.987 14.412v10.851h-3.513V6.966h3.415v3.011h.244c.412-.993 1.057-1.778 1.936-2.357.878-.589 2.006-.884 3.383-.884 1.236 0 2.315.262 3.236.786.933.513 1.654 1.282 2.163 2.308.52 1.026.781 2.297.781 3.813v11.62h-3.513V14.069c0-1.32-.347-2.357-1.041-3.11-.694-.764-1.637-1.146-2.83-1.146-.813 0-1.545.185-2.196.556-.64.36-1.144.878-1.512 1.555s-.553 1.506-.553 2.488zM99.36 25.263c-1.69 0-3.17-.385-4.441-1.155-1.26-.77-2.239-1.85-2.939-3.24-.689-1.39-1.033-3.005-1.033-4.844 0-1.861.344-3.486 1.033-4.876.7-1.401 1.679-2.486 2.939-3.256 1.27-.77 2.75-1.155 4.441-1.155 1.701 0 3.181.385 4.441 1.155s2.239 1.855 2.939 3.256c.7 1.39 1.05 3.016 1.05 4.876 0 1.839-.35 3.454-1.05 4.844s-1.679 2.47-2.939 3.24c-1.259.77-2.74 1.155-4.441 1.155zm0-2.935c1.109 0 2.024-.289 2.745-.866s1.254-1.342 1.599-2.294c.355-.963.533-2.01.533-3.144 0-1.155-.178-2.214-.533-3.176-.344-.962-.877-1.732-1.599-2.31s-1.636-.866-2.745-.866c-1.098 0-2.008.289-2.729.866-.711.577-1.243 1.347-1.599 2.31s-.533 2.021-.533 3.176c0 1.134.178 2.181.533 3.144.355.952.888 1.716 1.599 2.294.721.577 1.631.866 2.729.866zM88.896 11.356l-3.289.545c-.212-.599-.606-1.15-1.185-1.652-.568-.503-1.419-.754-2.554-.754-1.024 0-1.881.225-2.571.674-.679.438-1.018 1-1.018 1.684 0 .599.228 1.085.684 1.46.467.374 1.207.674 2.22.898l2.988.642c1.703.374 2.977.962 3.823 1.764s1.269 1.829 1.269 3.08c0 1.08-.323 2.042-.968 2.887-.645.834-1.541 1.492-2.688 1.973-1.146.47-2.471.706-3.973.706-2.092 0-3.795-.433-5.108-1.299s-2.12-2.085-2.421-3.657l3.489-.513c.222.877.673 1.54 1.352 1.989.69.449 1.58.674 2.671.674 1.18 0 2.126-.241 2.838-.722.723-.481 1.085-1.064 1.085-1.748 0-1.133-.879-1.898-2.637-2.294l-3.155-.674c-1.747-.385-3.038-.989-3.873-1.813-.824-.834-1.235-1.882-1.235-3.144 0-1.059.306-1.989.918-2.791.623-.802 1.475-1.422 2.554-1.861 1.091-.449 2.331-.674 3.723-.674 2.026 0 3.611.422 4.758 1.267 1.157.845 1.925 1.962 2.304 3.352zM64 25.263V6.998h3.538v2.924h.203c.35-.98.959-1.754 1.828-2.32.88-.577 1.873-.866 2.979-.866.226 0 .491.011.795.033.316.011.57.027.762.049v3.398c-.147-.044-.412-.087-.796-.131-.372-.044-.75-.065-1.134-.065-.869 0-1.648.18-2.336.539-.677.349-1.213.833-1.608 1.454-.384.61-.576 1.318-.576 2.124v11.126h-3.656zM54.344 25.263c-1.82 0-3.395-.38-4.726-1.139s-2.358-1.829-3.079-3.208c-.71-1.39-1.065-3.01-1.065-4.86 0-1.839.349-3.459 1.048-4.86.71-1.401 1.703-2.492 2.979-3.272 1.287-.791 2.796-1.187 4.527-1.187 1.054 0 2.075.166 3.062.497s1.875.855 2.663 1.572c.788.716 1.409 1.647 1.864 2.791.466 1.144.699 2.524.699 4.138v1.251H47.521v-2.615h12.931l-1.681.866c0-1.101-.178-2.075-.533-2.919s-.888-1.502-1.598-1.973c-.699-.481-1.57-.722-2.613-.722s-1.936.241-2.68.722c-.732.481-1.292 1.117-1.681 1.909s-.582 1.657-.582 2.598v1.78c0 1.23.222 2.272.666 3.128s1.06 1.508 1.847 1.957c.799.449 1.725.674 2.779.674.688 0 1.309-.096 1.864-.289.566-.192 1.054-.481 1.464-.866s.721-.861.932-1.428l3.428.626c-.277.963-.766 1.807-1.465 2.534s-1.581 1.294-2.646 1.7c-1.054.396-2.258.594-3.611.594zM46.213 7.158v2.834H35.369V7.158h10.844zm-7.889 18.105V5.052c0-1.123.264-2.057.791-2.802.538-.756 1.237-1.317 2.097-1.684.871-.378 1.804-.567 2.801-.567.767 0 1.421.059 1.959.178s.934.221 1.186.308l-.894 2.85c-.172-.054-.395-.113-.67-.178-.263-.065-.596-.097-.997-.097-.905 0-1.558.216-1.959.648-.401.421-.601 1.036-.601 1.846v19.709h-3.712z"
                style="fill:#fafafa" />
            <path fill="#fafafa"
                d="M36.107 7.158v2.834H25.263V7.158h10.844zm-7.888 18.105V5.052c0-1.123.264-2.057.791-2.802.538-.756 1.237-1.317 2.097-1.684.871-.378 1.804-.567 2.801-.567.767 0 1.421.059 1.959.178s.934.221 1.186.308l-.894 2.85c-.172-.054-.395-.113-.67-.178-.263-.065-.596-.097-.997-.097-.905 0-1.558.216-1.959.648-.401.421-.601 1.036-.601 1.846v19.709H28.22zM17.291 25.263c-1.82 0-3.395-.38-4.726-1.139s-2.358-1.829-3.079-3.208c-.71-1.39-1.065-3.01-1.065-4.86 0-1.839.35-3.459 1.048-4.86.71-1.401 1.703-2.492 2.979-3.272 1.287-.791 2.796-1.187 4.527-1.187 1.054 0 2.075.166 3.062.497s1.875.855 2.663 1.572c.788.716 1.409 1.647 1.864 2.791.466 1.144.699 2.524.699 4.138v1.251H10.468v-2.615h12.931l-1.681.866c0-1.101-.178-2.075-.533-2.919s-.888-1.502-1.598-1.973c-.699-.481-1.57-.722-2.613-.722s-1.936.241-2.68.722c-.732.481-1.293 1.117-1.681 1.909s-.582 1.657-.582 2.598v1.78c0 1.23.222 2.272.666 3.128s1.06 1.508 1.847 1.957c.799.449 1.725.674 2.779.674.688 0 1.309-.096 1.864-.289.566-.192 1.054-.481 1.464-.866s.721-.861.932-1.428l3.428.626c-.277.963-.766 1.807-1.465 2.534s-1.581 1.294-2.646 1.7c-1.054.396-2.258.594-3.611.594zM2.878 7.012h3.416v19.376c.011 1.215-.2 2.24-.633 3.075s-1.065 1.464-1.898 1.887c-.833.434-1.856.651-3.068.651h-.696v-3.042h.553c.822 0 1.413-.222 1.771-.667s.543-1.085.554-1.92V7.012zM4.57 4.214c-.601 0-1.112-.206-1.534-.618s-.633-.906-.633-1.48c0-.586.211-1.085.633-1.497S3.969.001 4.57.001c.59 0 1.096.206 1.518.618.432.412.648.911.648 1.497 0 .575-.216 1.068-.648 1.48-.422.412-.928.618-1.518.618z"
                style="fill:#fafafa" />
        </symbol>
        <symbol id="icon-service_art" viewBox="0 0 32 32">
            <path fill="none" stroke="#fafafa" stroke-linecap="round" stroke-linejoin="round" stroke-width="2.6667"
                d="M17.037 20 12 14.963M2.667 29.333c2.667 0 6.144.456 7.966-1.367s1.822-4.777 0-6.6c-1.822-1.822-4.777-1.822-6.6 0s0 5.3-1.367 7.967zM10.667 21.333c-.655-.655-.983-.983-1.168-1.326a2.6683 2.6683 0 0 1 .05-2.623c.198-.336.538-.651 1.218-1.28L23.924 3.921c1.159-1.073 2.959-1.038 4.075.078s1.151 2.917.078 4.075L15.894 21.231c-.63.68-.944 1.02-1.28 1.218-.805.475-1.8.495-2.623.05-.343-.185-.671-.513-1.326-1.168z"
                style="stroke:#fafafa" />
        </symbol>
        <symbol id="icon-service_communication" viewBox="0 0 32 32">
            <path fill="none" stroke="#fafafa" stroke-linecap="round" stroke-linejoin="round" stroke-width="2.6667"
                d="M8.126 14.972C8.043 14.438 8 13.891 8 13.334 8 7.443 12.807 2.667 18.737 2.667s10.737 4.776 10.737 10.667c0 1.331-.245 2.605-.693 3.779-.093.244-.14.366-.161.461s-.029.161-.031.257c-.002.097.011.205.037.42l.537 4.36c.058.472.087.708.009.88-.069.15-.191.27-.343.335-.173.075-.409.04-.879-.029l-4.247-.623c-.222-.033-.333-.049-.434-.048-.1.001-.169.008-.267.028s-.225.068-.477.163c-1.178.441-2.454.683-3.787.683-.558 0-1.105-.042-1.64-.124m-6.923 5.457c3.953 0 7.158-3.283 7.158-7.333s-3.205-7.333-7.158-7.333c-3.953 0-7.158 3.283-7.158 7.333 0 .814.13 1.597.369 2.329.101.309.152.464.168.57.017.11.02.172.014.284-.006.107-.033.227-.086.469l-.815 3.682 3.993-.545c.218-.03.327-.045.422-.044.1.001.153.006.252.026.093.019.232.067.51.165a6.994 6.994 0 0 0 2.332.398z"
                style="stroke:#fafafa" />
        </symbol>
        <symbol id="icon-service_expertise" viewBox="0 0 32 32">
            <path fill="none" stroke="#fafafa" stroke-linecap="round" stroke-linejoin="round" stroke-width="2.6667"
                d="M26.667 28c0-1.861 0-2.791-.23-3.548a5.3327 5.3327 0 0 0-3.556-3.556c-.757-.23-1.687-.23-3.548-.23h-6.667c-1.861 0-2.791 0-3.548.23a5.3347 5.3347 0 0 0-3.556 3.556c-.23.757-.23 1.687-.23 3.548M16 16c3.314 0 6-2.686 6-6s-2.686-6-6-6-6 2.686-6 6 2.686 6 6 6z"
                style="stroke:#fafafa" />
        </symbol>
        <symbol id="icon-service_urgent" viewBox="0 0 32 32">
            <path fill="none" stroke="#fafafa" stroke-linecap="round" stroke-linejoin="round" stroke-width="2.6667"
                d="M24.217 2.667H7.783c-.617 0-1.117.5-1.117 1.117 0 3.554 1.412 6.962 3.925 9.475l1.626 1.626c.161.161.242.242.3.32a1.335 1.335 0 0 1 0 1.594c-.058.077-.139.158-.3.32l-1.626 1.626a13.3995 13.3995 0 0 0-3.925 9.475c0 .617.5 1.117 1.117 1.117h16.434c.617 0 1.117-.5 1.117-1.117 0-3.554-1.412-6.962-3.925-9.475l-1.626-1.626c-.161-.161-.242-.242-.3-.32a1.332 1.332 0 0 1 0-1.594c.058-.077.139-.158.3-.32l1.626-1.626a13.3995 13.3995 0 0 0 3.925-9.475c0-.617-.5-1.117-1.117-1.117z"
                style="stroke:#fafafa" />
        </symbol>
        <symbol id="icon-close" viewBox="0 0 32 32">
            <path fill="none" stroke="#fafafa" stroke-linecap="round" stroke-linejoin="round" stroke-width="2.2857"
                d="M24 8 8 24M8 8l16 16" style="stroke:#fafafa" />
        </symbol>
        <symbol id="icon-menu-burger" viewBox="0 0 32 32">
            <path fill="none" stroke="#fafafa" stroke-linecap="round" stroke-linejoin="round" stroke-width="2.2857"
                d="M4 11.333h24M4 20.667h24" style="stroke:#fafafa" />
        </symbol>
        <symbol id="icon-vector" viewBox="0 0 5488 32">
            <path fill="none" style="stroke: var(--color1, #fafafa)" stroke-linejoin="miter"
                stroke-linecap="butt" stroke-miterlimit="4" stroke-width="16" d="M0 16h5488"></path>
        </symbol>
    </defs>
</svg>