<svg xmlns="http://www.w3.org/2000/svg" width="48" height="48" fill="none"><rect width="48" height="48" fill="#1C1D20" rx="10"/><path fill="#FAFAFA" d="M18.6484 31.1953c-.8268 0-1.569-.1465-2.2265-.4394-.6576-.2995-1.1784-.7357-1.5625-1.3086-.3841-.573-.5762-1.2696-.5762-2.0899v-.2832h2.1777v.2832c0 .3972.0912.7455.2735 1.0449.1888.2995.4459.5306.7715.6934.332.1563.7129.2344 1.1425.2344.4623 0 .8562-.0977 1.1817-.293.3255-.1953.5729-.4818.7422-.8594.1692-.3841.2539-.8528.2539-1.4062V16.4492h2.1777v10.3223c0 .931-.179 1.7285-.5371 2.3926-.3516.6575-.8529 1.1621-1.5039 1.5136-.6511.3451-1.4225.5176-2.3145.5176Zm9.1508-6.5625.1367-2.998-2.5195 1.6308-.7812-1.3476 2.6757-1.3672-2.6757-1.3672.7812-1.3672 2.5195 1.6309-.1367-2.9981h1.543l-.1367 2.9981 2.5195-1.6309.7813 1.3672-2.6758 1.3672 2.6758 1.3672-.7813 1.3476-2.5195-1.6308.1367 2.998h-1.543Z"/></svg>